<?xml version="1.0" encoding="UTF-8"?>
<svg width="26px" height="24px" viewBox="0 0 26 24" version="1.1" xmlns="http://www.w3.org/2000/svg" xmlns:xlink="http://www.w3.org/1999/xlink">
    <!-- Generator: Sketch 52.6 (67491) - http://www.bohemiancoding.com/sketch -->
    <title>icon: cart</title>
    <desc>Created with Sketch.</desc>
    <defs>
        <polygon id="path-1" points="0.0332405063 0.0477063291 4.59313924 0.0477063291 4.59313924 4.60759494 0.0332405063 4.60759494"></polygon>
        <polygon id="path-3" points="0.0304455696 0.0477063291 4.5903443 0.0477063291 4.5903443 4.60759494 0.0304455696 4.60759494"></polygon>
        <polygon id="path-5" points="4.10972262e-07 0.0115443038 25.9240047 0.0115443038 25.9240047 18.4107747 4.10972262e-07 18.4107747"></polygon>
    </defs>
    <g id="Symbols" stroke="none" stroke-width="1" fill="none" fill-rule="evenodd">
        <g id="Top-Header---Plans" transform="translate(-1054.000000, -38.000000)">
            <g id="Cart" transform="translate(1054.000000, 38.000000)">
                <g id="icon:-cart">
                    <g id="Group-3" transform="translate(8.556962, 19.392405)">
                        <mask id="mask-2" fill="white">
                            <use xlink:href="#path-1"></use>
                        </mask>
                        <g id="Clip-2"></g>
                        <path d="M2.31318987,3.33449114 C1.75794937,3.33449114 1.30625316,2.8827443 1.30625316,2.32755443 C1.30625316,1.77226329 1.758,1.32061772 2.31318987,1.32061772 C2.86837975,1.32061772 3.32012658,1.77231392 3.32012658,2.32755443 C3.32012658,2.88284557 2.86837975,3.33449114 2.31318987,3.33449114 M2.31318987,0.0477063291 C1.05602532,0.0477063291 0.0332405063,1.07049114 0.0332405063,2.3276557 C0.0332405063,3.58476962 1.05602532,4.60760506 2.31318987,4.60760506 C3.57035443,4.60760506 4.59313924,3.58476962 4.59313924,2.3276557 C4.59308861,1.07049114 3.5703038,0.0477063291 2.31318987,0.0477063291" id="Fill-1" fill="#545A5F" mask="url(#mask-2)"></path>
                    </g>
                    <g id="Group-6" transform="translate(16.556962, 19.392405)">
                        <mask id="mask-4" fill="white">
                            <use xlink:href="#path-3"></use>
                        </mask>
                        <g id="Clip-5"></g>
                        <path d="M2.31039494,3.33449114 C1.75515443,3.33449114 1.30345823,2.8827443 1.30345823,2.32755443 C1.30345823,1.77226329 1.75520506,1.32061772 2.31039494,1.32061772 C2.86563544,1.32061772 3.31733165,1.77231392 3.31733165,2.32755443 C3.31733165,2.88284557 2.86558481,3.33449114 2.31039494,3.33449114 M2.31039494,0.0477063291 C1.05323038,0.0477063291 0.0304455696,1.07049114 0.0304455696,2.3276557 C0.0304455696,3.58476962 1.05323038,4.60760506 2.31039494,4.60760506 C3.56755949,4.60760506 4.5903443,3.58476962 4.5903443,2.3276557 C4.59029367,1.07049114 3.56750886,0.0477063291 2.31039494,0.0477063291" id="Fill-4" fill="#545A5F" mask="url(#mask-4)"></path>
                    </g>
                    <g id="Group-9">
                        <mask id="mask-6" fill="white">
                            <use xlink:href="#path-5"></use>
                        </mask>
                        <g id="Clip-8"></g>
                        <path d="M22.8704253,14.046319 L6.86683038,14.046319 L5.08652658,5.40459747 L24.6506785,5.40459747 L22.8704253,14.046319 Z M25.6375139,4.60039494 C25.3947797,4.30247089 25.0351342,4.13163544 24.6507291,4.13163544 L4.82419747,4.13163544 L4.42384304,2.18788861 C4.3402481,1.78242025 4.06364051,1.44196456 3.68384304,1.27705316 L0.890121519,0.0643949367 C0.567589873,-0.0757063291 0.19275443,0.0722936709 0.0528556962,0.394724051 C-0.0872455696,0.717255696 0.0608050633,1.09214177 0.383134177,1.23204051 L3.17700759,2.44474937 L6.25675443,17.3946734 C6.37807089,17.9834329 6.90247595,18.4107747 7.50358987,18.4107747 L22.7525519,18.4107747 C23.1040456,18.4107747 23.3890076,18.1258127 23.3890076,17.7742684 C23.3890076,17.4227747 23.1040456,17.1378127 22.7525519,17.1378127 L7.50364051,17.1378127 L7.12900759,15.319281 L22.8704253,15.319281 C23.4715392,15.319281 23.9959443,14.8918886 24.1172101,14.3031291 L25.8975646,5.66135696 C25.9750835,5.28505316 25.8802987,4.89826835 25.6375139,4.60039494 Z" id="Fill-7" fill="#545A5F" mask="url(#mask-6)"></path>
                    </g>
                </g>
            </g>
        </g>
    </g>
</svg>