<?xml version="1.0" encoding="utf-8" ?>
<svg xmlns="http://www.w3.org/2000/svg" xmlns:xlink="http://www.w3.org/1999/xlink" width="60" height="60">
	<defs>
		<clipPath id="clip_0">
			<rect x="-499" y="-2892" width="1440" height="4108" clip-rule="evenodd"/>
		</clipPath>
	</defs>
	<g clip-path="url(#clip_0)">
		<path fill="rgb(15,163,177)" stroke="none" transform="translate(0.401855 0.400024)" d="M29.5883 0C37.4983 0 44.9317 3.07667 50.5183 8.67C56.115 14.26 59.195 21.6933 59.195 29.61C59.195 37.5133 56.115 44.9467 50.5217 50.54C44.9317 56.13 37.4983 59.2067 29.5917 59.2067C21.6817 59.2067 14.245 56.1267 8.655 50.5333C-2.885 38.9933 -2.885 20.2133 8.655 8.67333C14.2483 3.08 21.6817 0 29.5883 0ZM10.2283 48.96C15.3983 54.1333 22.275 56.9833 29.5917 56.9833C36.9083 56.9833 43.7817 54.1367 48.9483 48.97C54.1217 43.7967 56.9717 36.9233 56.9717 29.6067C56.9717 22.29 54.1217 15.4133 48.945 10.2333C43.775 5.06667 36.8983 2.22 29.5883 2.22C22.2717 2.22 15.3983 5.06667 10.2283 10.2367C5.065 15.4 2.22167 22.2767 2.22167 29.6C2.22167 36.9233 5.065 43.7967 10.2283 48.96Z" fill-rule="evenodd"/>
	</g>
	<defs>
		<clipPath id="clip_1">
			<rect x="-499" y="-2892" width="1440" height="4108" clip-rule="evenodd"/>
		</clipPath>
	</defs>
	<g clip-path="url(#clip_1)">
		<path fill="rgb(15,163,177)" stroke="none" transform="translate(14.4033 14.41)" d="M30.07 14.4833L16.7033 14.4833L16.7033 1.11C16.7033 0.496667 16.2067 0 15.5933 0C14.98 0 14.4833 0.496667 14.4833 1.11L14.4833 14.4867L1.11 14.4867C0.496667 14.4867 0 14.98 0 15.5933C0 16.2067 0.496667 16.7033 1.11 16.7033L14.4767 16.7033L14.4767 30.0733C14.4767 30.69 14.9767 31.1867 15.5867 31.1867C16.2 31.1867 16.6967 30.69 16.6967 30.0733L16.6967 16.7067L30.0667 16.7067C30.68 16.7067 31.1767 16.21 31.1767 15.5967C31.1767 14.9833 30.6833 14.4833 30.07 14.4833Z"/>
	</g>

</svg>